<svg xmlns="http://www.w3.org/2000/svg" viewBox="0 0 986 160" fill="#030309">
  <g transform="translate(0,0)"><rect x="0" y="0" width="200" height="18"/><rect x="0" y="71" width="88" height="18"/><rect x="0" y="142" width="200" height="18"/></g><g transform="translate(270,0)"><path d="M0 9 H120 A71 71 0 0 1 120 151 H0" fill="none" stroke="#030309" stroke-width="18"/></g><g transform="translate(516,0)"><path d="M200 9 H80 A71 71 0 0 0 80 151 H200" fill="none" stroke="#030309" stroke-width="18"/><rect x="126" y="71" width="74" height="18"/><rect x="182" y="71" width="18" height="89"/></g><g transform="translate(786,0)"><rect x="0" y="0" width="200" height="18"/><rect x="112" y="71" width="88" height="18"/><rect x="0" y="142" width="200" height="18"/></g>
</svg>
