<svg xmlns="http://www.w3.org/2000/svg" viewBox="0 -90.0 1076.0 256.0">
<defs><linearGradient id="kante" gradientUnits="userSpaceOnUse" x1="870" y1="-69.0" x2="1055.0" y2="80"><stop offset="0" stop-color="#00E2E2"/><stop offset=".5" stop-color="#009FF4"/><stop offset="1" stop-color="#C15DE6"/></linearGradient></defs><g fill="#030309" color="#030309"><g transform="translate(0,0)"><rect x="0" y="0" width="200" height="18"/><rect x="0" y="71" width="88" height="18"/><rect x="0" y="142" width="200" height="18"/></g><g transform="translate(270,0)"><path d="M0 9 H120 A71 71 0 0 1 120 151 H0" fill="none" stroke="#030309" stroke-width="18"/></g><g transform="translate(516,0)"><path d="M200 9 H80 A71 71 0 0 0 80 151 H200" fill="none" stroke="#030309" stroke-width="18"/><rect x="126" y="71" width="74" height="18"/><rect x="182" y="71" width="18" height="89"/></g><g transform="translate(786,0)"><rect x="0" y="0" width="200" height="18"/><rect x="112" y="71" width="88" height="18"/><rect x="0" y="142" width="200" height="18"/></g></g><path d="M870 -69.0 H1055.0 V80" fill="none" stroke="url(#kante)" stroke-width="30" stroke-linejoin="round" stroke-linecap="butt"/>
</svg>
